<?xml version="1.0" encoding="utf-8"?>
<!-- Generator: Adobe Illustrator 25.1.0, SVG Export Plug-In . SVG Version: 6.00 Build 0)  -->
<svg version="1.1" id="Layer_1" xmlns="http://www.w3.org/2000/svg" xmlns:xlink="http://www.w3.org/1999/xlink" x="0px" y="0px"
	 viewBox="0 0 338 110" style="enable-background:new 0 0 338 110;" xml:space="preserve">
<style type="text/css">
	.st0{clip-path:url(#SVGID_2_);}
	.st1{fill:none;stroke:url(#SVGID_3_);stroke-opacity:0.5;}
	.st2{opacity:0.15;clip-path:url(#SVGID_5_);}
	.st3{fill-rule:evenodd;clip-rule:evenodd;fill:url(#SVGID_6_);}
	.st4{opacity:0.15;clip-path:url(#SVGID_8_);}
	.st5{fill-rule:evenodd;clip-rule:evenodd;fill:url(#SVGID_9_);}
	.st6{fill:url(#SVGID_10_);fill-opacity:0.3;}
	.st7{fill:none;stroke:url(#SVGID_11_);}
	.st8{clip-path:url(#SVGID_13_);}
	.st9{fill:url(#SVGID_14_);}
	.st10{clip-path:url(#SVGID_16_);}
	.st11{fill-rule:evenodd;clip-rule:evenodd;fill:url(#SVGID_17_);fill-opacity:0.2;}
	.st12{fill:#F9F9F9;}
</style>
<g>
	<g>
		<defs>
			<rect id="SVGID_1_" y="0" width="338" height="110"/>
		</defs>
		<clipPath id="SVGID_2_">
			<use xlink:href="#SVGID_1_"  style="overflow:visible;"/>
		</clipPath>
		<g class="st0">
			
				<linearGradient id="SVGID_3_" gradientUnits="userSpaceOnUse" x1="169" y1="488" x2="169" y2="594" gradientTransform="matrix(1 0 0 1 0 -484)">
				<stop  offset="0" style="stop-color:#171D45"/>
				<stop  offset="1" style="stop-color:#171D45;stop-opacity:0"/>
			</linearGradient>
			<path class="st1" d="M169,4.5L169,4.5c29,0,52.5,23.5,52.5,52.5l0,0c0,29-23.5,52.5-52.5,52.5l0,0c-29,0-52.5-23.5-52.5-52.5l0,0
				C116.5,28,140,4.5,169,4.5z"/>
			<g>
				<g>
					<defs>
						
							<rect id="SVGID_4_" x="13.2" y="-13.3" transform="matrix(0.9614 -0.2751 0.2751 0.9614 -9.7851 19.3068)" width="101.5" height="115.7"/>
					</defs>
					<clipPath id="SVGID_5_">
						<use xlink:href="#SVGID_4_"  style="overflow:visible;"/>
					</clipPath>
					<g class="st2">
						
							<linearGradient id="SVGID_6_" gradientUnits="userSpaceOnUse" x1="48.0149" y1="472.9183" x2="79.8704" y2="584.2419" gradientTransform="matrix(1 0 0 1 0 -484)">
							<stop  offset="0" style="stop-color:#95ACFE"/>
							<stop  offset="1" style="stop-color:#95ACFE;stop-opacity:0"/>
						</linearGradient>
						<path class="st3" d="M96.1,24.1c-6.9-1.1-13.7-0.1-20.6,1c-4.4,0.7-8.7,1.3-13,1.4c-1.3,0-2.7,0.1-4,0c-2.6,0-5.3-0.2-7.9-0.5
							c-2.6-0.3-5.2-0.7-7.8-1.3c-10.3-2.2-20.2-6.5-29-12.4C9.7,9.6,5.8,6,2.1,2.7L1.6,2.2l1.7,5c1.2,3.4,2.9,6.6,5,9.5
							c5.2,7.1,12.7,12.2,20.8,15.4C28,32.1,27,32,25.9,32c-3.3-0.2-6.7-0.4-10-0.9c-3-0.4-6.4-1.3-9.3-2.2l0,0
							c12.7,12,28.5,17.7,44.8,18.8c-9.1,1.2-18.6,2.4-27.7,3.3c12.6,4.5,26.1,6.3,39.5,5.6c2.5-0.1,5-0.3,7.4-0.6
							c-0.4,0.2-0.8,0.3-1.3,0.5L68.1,57c-4.9,2-9.8,4.1-14.7,5.9c-2.7,1-5.7,2.1-8.5,3l-0.8,0.3c5.6,0.8,11.5,1.1,17.1,0.5
							c7.3-0.7,14.5-2.2,21.6-4.1C74.5,68.9,65.9,75,57.3,81.1c12.2-1.9,24.4-5,35.5-10.6c-0.3,0.4-0.7,0.7-1,1.1
							c-4.2,4.5-8.1,9.3-12,14l-1.4,1.8l2.3-0.3c6.8-1,13.4-3.3,19.3-6.8c0.6,2.9,0.7,5.8,0.1,8.7c-0.2,1-0.7,2.2-1.1,3.3
							c-0.1,0.3-0.2,0.5-0.3,0.7l0.6-0.3l0,0l0,0c1.1-0.5,2.4-1,3.4-1.6c3.2-1.8,6.1-4.1,8.8-6.7c1-1,1.9-2,2.8-3.1
							c2.1,2.7,5.1,4.9,9.5,6.3l0,0l0,0c-0.1-0.1-0.1-0.1-0.2-0.2c-3.9-3.6-5.9-8.8-6.7-13.9c-0.7-4.8-0.5-9.6-0.2-14.5
							c0.2-4.1,0.5-8.3,0.1-12.4C115.5,34.1,108.8,26.1,96.1,24.1L96.1,24.1L96.1,24.1z M123.5,87.5c-0.1-0.1-0.2-0.2-0.3-0.2
							c-0.2-0.2-0.4-0.3-0.5-0.5c-0.1-0.1-0.2-0.2-0.3-0.3c-0.2-0.2-0.4-0.4-0.6-0.6v-0.1l-0.1-0.1l-0.1-0.1
							c-0.2-0.2-0.4-0.5-0.6-0.8l-0.5-0.7c0,0-0.1-0.1-0.2-0.2l0,0l0,0l0,0l-0.1-0.2c-5.1-7.6-4.8-17.1-4.5-25.8v-0.4
							c0.3-8.6,0-18.2-6.1-24.9c-3.5-3.8-8.6-5.8-13.7-6.6c-6.6-0.9-13.1,0.1-19.6,1.2c-2.3,0.4-4.5,0.8-6.8,1.1
							c-5.9,0.8-11.8,0.9-17.7,0.4c-8.6-0.8-17.1-2.9-25.1-6.3C20.1,19.7,14,16.1,8.4,11.7c2.3,4.1,5.5,7.7,9.2,10.7
							c5.6,4.5,12.2,7.7,19.1,9.6c6.2,1.6,12.6,2.4,19,2.5c8.3,0.2,16.9-0.4,25.2-1.1h0.6c3.9-0.3,8-0.6,11.9,0.2
							c9.3,1.8,13.8,9.8,15.4,18.5c0.6,3.2,0.8,6.5,1,9.8c0.7,10.8,1.4,21.2,13.9,25.8L123.5,87.5L123.5,87.5
							C123.5,87.6,123.5,87.5,123.5,87.5z M96.5,49.9c-20.5,7-43.7,7.9-64.6,2.1c3.3-0.3,6.6-0.7,9.9-1.2c3.5-0.6,7-1.4,10.5-2.4
							c0.5-0.1,1-0.3,1.5-0.5c13.1,0.5,26.5-1.8,39.1-6.1c-0.3,0.5-0.6,1.1-0.7,1.8c-9.3,3.1-18.8,5.4-28.5,6.7
							c9.4-0.9,18.6-3,27.4-6.3l0.7-0.3l0.4-0.1c-0.1,0.8,0,1.6,0.3,2.4c-6.3,2-12.8,3.4-19.3,4.2c6.6-0.4,13.2-1.8,19.4-4.2
							c0.1,0.2,0.1,0.3,0.2,0.5c0.3,0.6,0.6,1.1,1.1,1.6c-7.4,2.2-15.1,3.6-22.8,4c7.7,0,15.5-1.4,22.8-4c0.8,0.8,1.7,1.3,2.8,1.7
							C96.5,49.8,96.5,49.8,96.5,49.9L96.5,49.9z M52,65.5c2.7-0.9,5.3-2,7.9-3.2c2.9-1.3,5.7-2.8,8.3-4.5c0.9-0.5,1.7-1.1,2.5-1.7
							c2.3-0.3,4.5-0.6,6.7-1c-3.3,2.1-6.8,3.9-10.4,5.4c3.8-1.2,7.4-3,10.5-5.5c3.7-0.6,7.3-1.5,10.8-2.5
							c-4.5,3.7-9.5,6.9-14.8,9.1c-0.7,0.3-1.7,0.7-2.4,1c0.8-0.3,1.6-0.5,2.4-0.8c5.5-2.1,10.6-5.3,14.8-9.3
							c2.6-0.7,5.2-1.6,7.7-2.6c-0.2,0.2-0.3,0.4-0.5,0.6c-3,2.9-6.3,5.5-10,7.5c-1.3,0.7-2.7,1.4-4.1,2c5.3-1.7,10-4.8,13.7-8.9
							c-0.2,0.3-0.3,0.7-0.4,1c-0.4,1.2-0.2,2.5,0.4,3.6c0.6,1,1.6,1.7,2.8,2.1c-7.8,2.1-15.7,4.2-23.6,5.6C67.1,65,59.5,66,52,65.5
							L52,65.5L52,65.5z M64.8,78.1c2.3-1.6,4.6-3.3,6.9-5.1c4.1-3.2,8-6.6,11.6-10.3c2.1-0.6,4.2-1.2,6.2-1.8
							c-3.7,3.4-7.7,6.6-11.7,9.5c4.3-2.7,8.3-5.9,11.8-9.6c2.9-0.9,5.8-1.8,8.7-2.7c-4.4,4.3-9.4,8-14.8,10.9
							c-0.7,0.4-1.7,0.9-2.4,1.2c0.8-0.3,1.6-0.7,2.4-1.1c5.5-2.7,10.6-6.5,14.8-11l0,0c-0.6,0.9-1,2.1-0.9,3.2
							c0.1,0.8,0.4,1.6,0.9,2.3c-4.3,2.7-8.9,5-13.8,6.7c4.9-1.4,9.6-3.7,13.8-6.7c0.2,0.3,0.5,0.5,0.7,0.7c0.9,0.6,1.9,0.7,2.8,0.6
							C90.5,71.6,77.7,75.7,64.8,78.1L64.8,78.1L64.8,78.1z M96.6,36.4c6.3,2.7,9.6,9.5,10.9,15.9c0.6,3.1,0.9,6.4,1.2,9.6
							c0.7,7.2,1.4,14.3,5.4,19.5c-2.2,1.8-4.5,3.4-6.8,5c-1.8,1.2-3.7,2.4-5.6,3.3c0.7-3.2,0.2-6.7-1.6-9.5
							c2.7-1.6,5.2-3.4,7.5-5.5c-7.7,4.8-16.1,8.4-25,10.2l0.2-0.2c3.2-4.2,6.3-8.4,9.3-12.8c0.4-0.5,0.7-1,1.1-1.6
							c1.4-0.7,2.7-1.4,4-2.2c-0.3,0.4-0.6,0.9-0.9,1.3c-2.8,4.1-6.1,7.9-9.6,11.5c3.8-3.3,7.1-7.2,9.7-11.4c0.2-0.4,0.6-1,0.9-1.4
							c1.7-1,3.4-2.1,5.1-3.2c0.1,0,0.2,0,0.3,0c-0.3,0.9-0.4,1.9-0.2,2.8c-3.2,4-6.6,7.7-10.2,11.3c3.9-3.3,7.3-7.1,10.3-11.2
							c0.1,0.8,0.4,1.6,0.9,2.4c0.3,0.6,0.8,1,1.3,1.4c-2.6,2.6-5.5,4.8-8.7,6.6c3.4-1.5,6.4-3.7,8.7-6.5c1.2,0.9,2.7,1.4,4.3,1.3
							c-3.1-0.2-5.7-2.8-5.4-5.9c0.1-1,0.4-1.9,0.9-2.7l0.8-1.3l-1.6,0.4h-0.1c-0.4,0.1-0.7,0.1-1.1,0.1c-0.8,0-1.6-0.1-2.2-0.5
							c-0.9-0.6-1.1-1.8-0.7-2.8c0.2-0.7,0.7-1.4,1.3-1.9l1.3-1.2l-1.8-0.3h-0.1c-1.3-0.3-2.8-0.9-3.2-2.2c-0.3-1-0.1-1.9,0.5-2.8
							c0.5-0.7,1.1-1.2,1.8-1.8l0.2-0.1l2.2-1.8l-2.8,0.3c-2.1,0.2-4.1-1.1-4.8-3c-0.5-1.2-0.3-2.4,0.5-3.5l0.5-0.8l-0.8-0.1
							c-1.4-0.3-2.9-1.1-3.5-2.5c-0.4-1-0.5-2.3-0.1-3.3C92.5,35.2,94.6,35.6,96.6,36.4L96.6,36.4z M77.1,35.8
							c3.2-0.3,6.4-0.6,9.7-0.8c0.7,0,1.4,0,2.1,0c-1,0.3-1.9,0.5-2.9,0.8c-10.5,2.7-21.4,3.2-32.2,3.3c8.5,0.2,17.1-0.1,25.5-1.6
							c0.4-0.1,1.4-0.3,1.7-0.3l0.3-0.1l0,0l1.4-0.3c0.7-0.1,1.4-0.3,2.2-0.5l0,0c0.3-0.1,0.6-0.2,0.9-0.2c1.1-0.3,2.2-0.6,3.3-1
							c0.3,0,0.7,0,1,0c-0.3,0.7-0.5,1.5-0.5,2.3c0,0.2,0,0.3,0,0.5c-4.2,1.2-8.5,2.2-12.9,2.8c-4.4,0.7-8.9,1.1-13.4,1.2
							c8.9,0.3,17.9-1,26.3-4c0.1,0.7,0.3,1.3,0.6,1.9c-7.5,1.9-15.1,3.6-22.8,4.9c7.7-0.9,15.3-2.6,22.8-4.9l0.1,0.1l0,0
							c0.6,0.9,1.5,1.5,2.5,1.9c-26.2,7.5-56.9,7.6-79.3-9.3c0.7,0.1,1.5,0.2,2.2,0.3c4.8,0.5,9.7,0.4,14.5-0.1
							c8.1,3,16.8,4.1,25.3,4.3l0,0C62.8,37,70,36.4,77.1,35.8z M104,81.6c-0.4,1-0.8,2-1.3,3c1.5-2,2.4-4.6,2.5-7.1
							C104.9,79,104.5,80.3,104,81.6z M106.5,81.5c0.5-1.2,1-2.4,1.6-3.6c-0.4,1.3-0.9,2.5-1.4,3.7s-1,2.4-1.6,3.6
							C105.5,84,106,82.7,106.5,81.5z M106,85.8c2.4-1.4,4.3-3.7,5.3-6.3c-0.8,1.4-1.6,2.6-2.7,3.8C107.8,84.2,106.9,85,106,85.8z
							 M112.1,59.3c0.2,2.6,0.4,5.2,0.8,7.8l0,0c0.2,1.2,0.4,2.4,0.7,3.5v0.1c0.1,0.4,0.3,1.3,0.4,1.6l0.3,0.9l0.3,0.8l0.1,0.4
							l0.2,0.4l0.3,0.8c-2.5-5.2-3.1-10.9-3.8-16.6c-0.7-6.2-1.4-12.5-4.5-18c-5-9.1-15.2-10.5-24.7-9.5c-1.7,0.2-3.5,0.4-5.2,0.6
							c-3.6,0.4-7.3,0.9-10.9,0.9c-1,0-2.6,0-3.6,0h-0.9h-0.5h-0.5c-9.6-0.4-19.2-2.5-28-6.3c9,3.4,18.5,5.2,28,5.4
							c0.3,0,0.8,0,1.3,0c0.2,0,0.4,0,0.5,0c0.7,0,1.7,0,2.5,0c0.4,0,0.7,0,1.1,0c3.3-0.1,6.7-0.5,10-0.9c6.9-0.9,13.8-1.8,20.5,0.4
							c10.5,3.1,14,13.1,15.1,23C111.8,56.2,111.9,57.8,112.1,59.3z"/>
					</g>
				</g>
			</g>
			<g>
				<g>
					<defs>
						
							<rect id="SVGID_7_" x="216.9" y="-6.1" transform="matrix(0.2751 -0.9614 0.9614 0.2751 156.2166 296.5061)" width="115.7" height="101.5"/>
					</defs>
					<clipPath id="SVGID_8_">
						<use xlink:href="#SVGID_7_"  style="overflow:visible;"/>
					</clipPath>
					<g class="st4">
						
							<linearGradient id="SVGID_9_" gradientUnits="userSpaceOnUse" x1="290.5907" y1="472.9482" x2="258.7476" y2="584.2289" gradientTransform="matrix(1 0 0 1 -1.314412e-05 -484)">
							<stop  offset="0" style="stop-color:#95ACFE"/>
							<stop  offset="1" style="stop-color:#95ACFE;stop-opacity:0"/>
						</linearGradient>
						<path class="st5" d="M242.5,24.1c6.9-1.1,13.7-0.1,20.6,1c4.4,0.7,8.7,1.3,13,1.4c1.3,0,2.7,0.1,4,0c2.6,0,5.3-0.2,7.9-0.5
							s5.2-0.7,7.8-1.3c10.3-2.2,20.2-6.5,29-12.4c4.1-2.7,8-6.3,11.7-9.7l0.5-0.5l-1.7,5c-1.2,3.4-2.9,6.6-5,9.5
							c-5.2,7.1-12.7,12.2-20.8,15.4c1.1,0,2.1-0.1,3.2-0.1c3.3-0.2,6.7-0.4,10-0.9c3-0.4,6.4-1.3,9.3-2.2l0,0
							c-12.7,12-28.5,17.7-44.8,18.8c9.1,1.2,18.6,2.4,27.7,3.3c-12.6,4.5-26.1,6.3-39.5,5.6c-2.5-0.1-5-0.3-7.4-0.6
							c0.4,0.2,0.8,0.3,1.3,0.5l1.2,0.5c4.9,2,9.8,4.1,14.7,5.9c2.7,1,5.7,2.1,8.5,3l0.8,0.3c-5.6,0.8-11.5,1.1-17.1,0.5
							c-7.3-0.7-14.5-2.2-21.6-4.1c8.5,6.2,17.1,12.3,25.7,18.3c-12.2-1.9-24.4-5-35.5-10.6c0.4,0.4,0.7,0.7,1,1.1
							c4.2,4.5,8.1,9.3,12,14l1.4,1.8l-2.3-0.3c-6.8-1-13.4-3.3-19.3-6.8c-0.6,2.9-0.7,5.8-0.1,8.7c0.2,1,0.7,2.2,1.1,3.3l0,0l0.2,1
							l-0.6-0.3l0,0l0,0c-1.1-0.5-2.4-1-3.4-1.6c-3.2-1.8-6.1-4.1-8.8-6.7c-1-1-1.9-2-2.8-3.1c-2.1,2.7-5.1,4.9-9.5,6.3l0,0l0,0
							c0.1-0.1,0.1-0.1,0.2-0.2c3.9-3.6,5.9-8.8,6.7-13.9c0.7-4.8,0.5-9.6,0.2-14.5c-0.2-4.1-0.5-8.3-0.1-12.4
							C223.1,34.1,229.8,26.1,242.5,24.1L242.5,24.1L242.5,24.1z M215.1,87.5c0.1-0.1,0.2-0.2,0.3-0.2c0.2-0.2,0.4-0.3,0.5-0.5
							c0.1-0.1,0.2-0.2,0.3-0.3c0.2-0.2,0.4-0.4,0.6-0.6v-0.1l0.1-0.1l0.1-0.1c0.2-0.3,0.4-0.5,0.6-0.8l0.5-0.7l0.2-0.2l0,0l0,0l0,0
							l0.1-0.2c5.1-7.6,4.8-17.1,4.5-25.8v-0.4c-0.3-8.6,0-18.2,6.1-24.9c3.5-3.8,8.6-5.8,13.7-6.6c6.6-0.9,13.1,0.1,19.6,1.2
							c2.3,0.4,4.5,0.8,6.8,1.1c5.9,0.8,11.8,0.9,17.7,0.4c8.6-0.8,17.1-2.9,25.1-6.3c6.5-2.8,12.7-6.4,18.3-10.7
							c-2.3,4.1-5.5,7.7-9.2,10.7c-5.6,4.5-12.2,7.7-19.1,9.6c-6.2,1.6-12.6,2.4-19,2.5c-8.3,0.2-16.9-0.4-25.2-1.1l0,0h-0.6
							c-3.9-0.3-8-0.6-11.9,0.2c-9.3,1.8-13.8,9.8-15.4,18.5c-0.6,3.2-0.8,6.5-1,9.8c-0.7,10.8-1.4,21.2-13.9,25.8L215.1,87.5
							L215.1,87.5L215.1,87.5L215.1,87.5z M242.1,49.9c20.5,7,43.7,7.9,64.6,2.1c-3.3-0.3-6.6-0.7-9.9-1.2c-3.5-0.6-7-1.4-10.5-2.4
							c-0.5-0.1-1-0.3-1.5-0.5c-13.1,0.5-26.5-1.8-39.1-6.1c0.4,0.6,0.6,1.2,0.6,1.8c9.3,3.1,18.8,5.4,28.5,6.7
							c-9.4-0.9-18.6-3-27.4-6.3l-0.7-0.3l-0.4-0.1c0.1,0.8,0,1.6-0.3,2.4c6.3,2,12.8,3.4,19.3,4.2c-6.6-0.4-13.2-1.8-19.4-4.2
							c-0.1,0.2-0.1,0.3-0.2,0.5c-0.3,0.6-0.6,1.1-1.1,1.6c7.4,2.2,15.1,3.6,22.8,4c-7.7,0-15.5-1.4-22.8-4
							c-0.8,0.8-1.7,1.3-2.7,1.7C242.1,49.8,242.1,49.8,242.1,49.9z M286.6,65.5c-2.7-0.9-5.3-2-7.9-3.2c-2.9-1.3-5.7-2.8-8.3-4.5
							c-0.9-0.5-1.7-1.1-2.5-1.7c-2.3-0.3-4.5-0.6-6.7-1c3.3,2.1,6.8,3.9,10.4,5.4c-3.8-1.2-7.4-3-10.5-5.5
							c-3.7-0.6-7.3-1.5-10.8-2.5c4.5,3.7,9.5,6.9,14.8,9.1c0.7,0.3,1.7,0.7,2.4,1c-0.8-0.3-1.6-0.5-2.4-0.8
							c-5.5-2.1-10.6-5.3-14.8-9.3c-2.6-0.7-5.2-1.6-7.7-2.6c0.2,0.2,0.3,0.4,0.5,0.6c3,2.9,6.3,5.5,10,7.5c1.3,0.7,2.7,1.4,4.1,2
							c-5.3-1.7-10-4.8-13.7-8.9c0.2,0.3,0.3,0.7,0.4,1c0.4,1.2,0.2,2.5-0.4,3.6c-0.6,1-1.6,1.7-2.8,2.1c7.8,2.1,15.7,4.2,23.6,5.6
							C271.5,65,279.1,66,286.6,65.5L286.6,65.5L286.6,65.5z M273.8,78.1c-2.3-1.6-4.6-3.3-6.9-5.1c-4.1-3.2-8-6.6-11.6-10.3
							c-2.1-0.6-4.2-1.2-6.2-1.8c3.7,3.4,7.7,6.6,11.7,9.5c-4.3-2.7-8.3-5.9-11.8-9.6c-2.9-0.9-5.8-1.8-8.7-2.7
							c4.4,4.3,9.4,8,14.8,10.9c0.7,0.4,1.7,0.9,2.4,1.2c-0.8-0.3-1.6-0.7-2.4-1.1c-5.5-2.7-10.6-6.5-14.8-11l0,0
							c0.6,0.9,1,2.1,0.9,3.2c-0.1,0.8-0.4,1.6-0.9,2.3c4.3,2.7,8.9,5,13.8,6.7c-4.9-1.4-9.6-3.7-13.8-6.7c-0.2,0.3-0.5,0.5-0.7,0.7
							c-0.9,0.6-1.9,0.7-2.9,0.6C248.1,71.6,260.9,75.7,273.8,78.1L273.8,78.1L273.8,78.1z M242,36.4c-6.3,2.7-9.6,9.5-10.9,15.9
							c-0.6,3.1-0.9,6.4-1.2,9.6c-0.7,7.2-1.4,14.3-5.4,19.5c2.2,1.8,4.5,3.4,6.8,5c1.8,1.2,3.7,2.4,5.6,3.3
							c-0.7-3.2-0.2-6.7,1.6-9.5c-2.7-1.6-5.2-3.4-7.5-5.5c7.7,4.8,16.1,8.4,25,10.2l-0.2-0.2c-3.2-4.2-6.4-8.4-9.3-12.8
							c-0.4-0.5-0.7-1-1.1-1.6c-1.4-0.7-2.7-1.4-4-2.2c0.3,0.4,0.6,1,0.9,1.3c2.8,4.1,6.1,7.9,9.6,11.5c-3.8-3.3-7.1-7.2-9.7-11.4
							c-0.3-0.5-0.6-1-0.9-1.4c-1.7-1-3.4-2.1-5.1-3.2c-0.1,0-0.2,0-0.3,0c0.3,0.9,0.4,1.9,0.2,2.8c3.2,4,6.6,7.7,10.2,11.3
							c-3.9-3.3-7.3-7.1-10.3-11.2c-0.1,0.8-0.4,1.6-0.9,2.4c-0.4,0.5-0.8,1-1.3,1.4c2.6,2.6,5.5,4.8,8.7,6.6
							c-3.4-1.5-6.4-3.7-8.7-6.5c-1.2,0.9-2.7,1.4-4.3,1.3c3.1-0.2,5.7-2.8,5.4-5.9c-0.1-1-0.4-1.9-0.9-2.7l-0.8-1.3l1.6,0.4h0.1
							c0.4,0.1,0.7,0.1,1.1,0.1c0.8,0,1.6-0.1,2.2-0.5c0.9-0.6,1.1-1.8,0.7-2.8c-0.2-0.7-0.7-1.4-1.3-1.9l-1.3-1.2l1.8-0.3h0.1
							c1.3-0.3,2.8-0.9,3.2-2.2c0.3-1,0.1-1.9-0.5-2.8c-0.5-0.7-1.1-1.2-1.8-1.8l-0.2-0.1l-2.2-1.8l2.8,0.3c2.1,0.2,4.1-1.1,4.8-3
							c0.5-1.2,0.3-2.4-0.5-3.5l-0.5-0.8l0.8-0.1c1.4-0.3,2.9-1.1,3.5-2.5c0.4-1,0.5-2.3,0.1-3.3C246.1,35.2,244,35.6,242,36.4
							L242,36.4L242,36.4z M261.5,35.8L261.5,35.8c-3.2-0.3-6.5-0.6-9.7-0.8c-0.7,0-1.4,0-2.1,0c1,0.3,1.9,0.5,2.9,0.8
							c10.5,2.7,21.4,3.2,32.2,3.3c-8.5,0.2-17.1-0.1-25.5-1.6c-0.4-0.1-1.4-0.3-1.7-0.3l-0.3-0.1l0,0l-1.4-0.3
							c-0.7-0.2-1.4-0.3-2.2-0.5l0,0c-0.3-0.1-0.6-0.2-0.9-0.2c-1.1-0.3-2.2-0.6-3.3-1c-0.3,0-0.7,0-1,0c0.3,0.7,0.5,1.5,0.5,2.3
							c0,0.2,0,0.3,0,0.5c4.2,1.2,8.5,2.2,12.9,2.8c4.4,0.7,8.9,1.1,13.4,1.2c-8.9,0.3-17.9-1-26.3-4c-0.1,0.7-0.3,1.3-0.6,1.9
							c7.5,1.9,15.1,3.6,22.8,4.9c-7.7-0.9-15.3-2.6-22.8-4.9c0,0,0,0.1-0.1,0.1l0,0c-0.6,0.9-1.5,1.5-2.5,1.9
							c26.2,7.5,56.9,7.6,79.3-9.3c-0.7,0.1-1.5,0.2-2.2,0.3c-4.8,0.5-9.7,0.4-14.5-0.1c-8.1,3-16.8,4.1-25.3,4.3l0,0
							C275.8,37,268.6,36.4,261.5,35.8z M234.6,81.7c0.4,1,0.8,2,1.3,3c-1.5-2-2.4-4.6-2.5-7.1C233.7,79,234.1,80.3,234.6,81.7
							L234.6,81.7L234.6,81.7z M232.1,81.5c-0.5-1.2-1-2.4-1.6-3.6c0.4,1.3,0.9,2.5,1.4,3.7s1,2.4,1.6,3.6
							C233.1,84,232.6,82.7,232.1,81.5z M232.6,85.8c-2.4-1.4-4.3-3.7-5.3-6.3c0.8,1.4,1.6,2.6,2.7,3.8
							C230.8,84.2,231.7,85,232.6,85.8L232.6,85.8z M226.5,59.3c-0.2,2.6-0.4,5.2-0.8,7.8l0,0c-0.2,1.2-0.4,2.4-0.7,3.5v0.1
							c-0.1,0.4-0.3,1.3-0.4,1.6l-0.3,0.9L224,74l-0.1,0.4l-0.2,0.4l-0.3,0.8c2.5-5.2,3.1-10.9,3.8-16.6c0.7-6.2,1.4-12.5,4.5-18
							c5-9.1,15.2-10.5,24.7-9.5c1.7,0.2,3.5,0.4,5.2,0.6c3.6,0.4,7.3,0.9,10.9,0.9c1,0,2.6,0,3.6,0h0.9h0.5h0.5
							c9.6-0.4,19.2-2.5,28-6.3c-9,3.4-18.5,5.2-28,5.4c-0.3,0-0.8,0-1.3,0c-0.2,0-0.4,0-0.5,0c-0.7,0-1.7,0-2.5,0
							c-0.4,0-0.7,0-1.1,0c-3.3-0.1-6.7-0.5-10-0.9c-6.9-0.9-13.8-1.8-20.5,0.4c-10.5,3.1-14,13.1-15.1,23
							C226.8,56.2,226.7,57.8,226.5,59.3L226.5,59.3z"/>
					</g>
				</g>
			</g>
			
				<radialGradient id="SVGID_10_" cx="-500.4904" cy="-1.5657" r="1" gradientTransform="matrix(1.963262e-14 320.625 -320.625 1.963262e-14 -332.9982 160331)" gradientUnits="userSpaceOnUse">
				<stop  offset="0" style="stop-color:#003BFF"/>
				<stop  offset="0.75" style="stop-color:#003BFF;stop-opacity:0"/>
			</radialGradient>
			<path class="st6" d="M169,12.5L169,12.5c24.6,0,44.5,19.9,44.5,44.5l0,0c0,24.6-19.9,44.5-44.5,44.5l0,0
				c-24.6,0-44.5-19.9-44.5-44.5l0,0C124.5,32.4,144.4,12.5,169,12.5z"/>
			
				<linearGradient id="SVGID_11_" gradientUnits="userSpaceOnUse" x1="169" y1="496" x2="169" y2="586" gradientTransform="matrix(1 0 0 1 0 -484)">
				<stop  offset="0" style="stop-color:#171D45"/>
				<stop  offset="1" style="stop-color:#171D45;stop-opacity:0"/>
			</linearGradient>
			<path class="st7" d="M169,12.5L169,12.5c24.6,0,44.5,19.9,44.5,44.5l0,0c0,24.6-19.9,44.5-44.5,44.5l0,0
				c-24.6,0-44.5-19.9-44.5-44.5l0,0C124.5,32.4,144.4,12.5,169,12.5z"/>
			<g>
				<g>
					<defs>
						<path id="SVGID_12_" d="M169,22L169,22c19.3,0,35,15.7,35,35l0,0c0,19.3-15.7,35-35,35l0,0c-19.3,0-35-15.7-35-35l0,0
							C134,37.7,149.7,22,169,22z"/>
					</defs>
					<clipPath id="SVGID_13_">
						<use xlink:href="#SVGID_12_"  style="overflow:visible;"/>
					</clipPath>
					<g class="st8">
						
							<radialGradient id="SVGID_14_" cx="-500.0592" cy="-2.013" r="1" gradientTransform="matrix(0 249.375 -249.375 0 -333.0012 124607)" gradientUnits="userSpaceOnUse">
							<stop  offset="0" style="stop-color:#003BFF"/>
							<stop  offset="0.75" style="stop-color:#003BFF;stop-opacity:0"/>
						</radialGradient>
						<path class="st9" d="M169,22L169,22c19.3,0,35,15.7,35,35l0,0c0,19.3-15.7,35-35,35l0,0c-19.3,0-35-15.7-35-35l0,0
							C134,37.7,149.7,22,169,22z"/>
						<g>
							<g>
								<defs>
									<rect id="SVGID_15_" x="20" y="22" width="298" height="287"/>
								</defs>
								<clipPath id="SVGID_16_">
									<use xlink:href="#SVGID_15_"  style="overflow:visible;"/>
								</clipPath>
								<g class="st10">
									
										<linearGradient id="SVGID_17_" gradientUnits="userSpaceOnUse" x1="165.4144" y1="335.6687" x2="171.0054" y2="792.9048" gradientTransform="matrix(1 0 0 1 0 -484)">
										<stop  offset="0" style="stop-color:#FFFFFF"/>
										<stop  offset="0.521" style="stop-color:#FFFFFF;stop-opacity:0"/>
									</linearGradient>
									<path class="st11" d="M-4.1,308.9L-350.4,22.6l0.6-0.8L-3.5,308.2L-4.1,308.9L-4.1,308.9z M1,308.9L-345.2,22.6l0.6-0.8
										L1.7,308.2L1,308.9L1,308.9z M-340,22.6L6.2,308.9l0.6-0.8L-339.4,21.9L-340,22.6L-340,22.6z M11.4,308.9L-334.9,22.6
										l0.6-0.8L12,308.2L11.4,308.9L11.4,308.9z M-329.7,22.6L16.5,308.9l0.6-0.8L-329.1,21.9L-329.7,22.6L-329.7,22.6z
										 M21.7,308.9L-324.5,22.6l0.6-0.8L22.3,308.2L21.7,308.9L21.7,308.9z M-319.4,22.6L26.9,308.9l0.6-0.8L-318.7,21.9
										L-319.4,22.6L-319.4,22.6z M32,308.9L-314.2,22.6l0.6-0.8L32.7,308.2L32,308.9L32,308.9z M-309,22.6L37.2,308.9l0.6-0.8
										L-308.4,21.9L-309,22.6L-309,22.6z M42.4,308.9L-303.9,22.6l0.6-0.8L43,308.2L42.4,308.9L42.4,308.9z M-298.7,22.6
										L47.5,308.9l0.6-0.8L-298,21.9L-298.7,22.6L-298.7,22.6z M52.7,308.9L-293.5,22.6l0.6-0.8L53.4,308.2L52.7,308.9
										L52.7,308.9z M-288.4,22.6L57.9,308.9l0.6-0.8L-287.7,21.9L-288.4,22.6L-288.4,22.6z M63,308.9L-283.2,22.6l0.6-0.8
										L63.7,308.2L63,308.9L63,308.9z M-278,22.6L68.2,308.9l0.6-0.8L-277.4,21.9L-278,22.6L-278,22.6z M73.4,308.9L-272.8,22.6
										l0.6-0.8L74,308.2L73.4,308.9L73.4,308.9z M-267.7,22.6L78.6,308.9l0.6-0.8L-267,21.9L-267.7,22.6L-267.7,22.6z
										 M83.7,308.9L-262.5,22.6l0.6-0.8L84.4,308.2L83.7,308.9L83.7,308.9z M-257.3,22.6L88.9,308.9l0.6-0.8L-256.7,21.9
										L-257.3,22.6L-257.3,22.6z M94.1,308.9L-252.2,22.6l0.6-0.8L94.7,308.2L94.1,308.9L94.1,308.9z M-247,22.6L99.2,308.9
										l0.6-0.8L-246.4,21.9L-247,22.6L-247,22.6z M104.4,308.9L-241.8,22.6l0.6-0.8L105,308.2L104.4,308.9L104.4,308.9z
										 M-236.7,22.6l346.2,286.3l0.6-0.8L-236,21.9L-236.7,22.6L-236.7,22.6z M114.7,308.9L-231.5,22.6l0.6-0.8l346.2,286.3
										L114.7,308.9L114.7,308.9z M-226.3,22.6l346.2,286.3l0.6-0.8L-225.7,21.9L-226.3,22.6L-226.3,22.6z M125.1,308.9
										L-221.2,22.6l0.6-0.8l346.2,286.3C125.7,308.2,125.1,308.9,125.1,308.9z M-216,22.6l346.2,286.3l0.6-0.8L-215.4,21.9
										L-216,22.6L-216,22.6z M135.4,308.9L-210.8,22.6l0.6-0.8L136,308.2L135.4,308.9z M-205.7,22.6l346.2,286.3l0.6-0.8
										L-205,21.9L-205.7,22.6L-205.7,22.6z M145.7,308.9L-200.5,22.6l0.6-0.8l346.2,286.3L145.7,308.9z M-195.3,22.6l346.2,286.3
										l0.6-0.8L-194.7,21.9L-195.3,22.6L-195.3,22.6z M156.1,308.9L-190.2,22.6l0.6-0.8l346.2,286.3L156.1,308.9L156.1,308.9z
										 M-185,22.6l346.2,286.3l0.6-0.8L-184.4,21.9L-185,22.6L-185,22.6z M166.4,308.9L-179.8,22.6l0.6-0.8L167,308.2
										L166.4,308.9z M-174.7,22.6l346.2,286.3l0.6-0.8L-174,21.9L-174.7,22.6L-174.7,22.6z M176.7,308.9L-169.5,22.6l0.6-0.8
										l346.2,286.3L176.7,308.9z M-164.3,22.6l346.2,286.3l0.6-0.8L-163.7,21.9L-164.3,22.6L-164.3,22.6z M187.1,308.9
										L-159.2,22.6l0.6-0.8l346.2,286.3L187.1,308.9z M-154,22.6l346.2,286.3l0.6-0.8L-153.4,21.9L-154,22.6L-154,22.6z
										 M197.4,308.9L-148.8,22.6l0.6-0.8L198,308.2L197.4,308.9z M-143.7,22.6l346.2,286.3l0.6-0.8L-143,21.9L-143.7,22.6
										L-143.7,22.6z M207.7,308.9L-138.5,22.6l0.6-0.8l346.2,286.3L207.7,308.9L207.7,308.9z M-133.3,22.6l346.2,286.3l0.6-0.8
										L-132.7,21.9L-133.3,22.6L-133.3,22.6z M218.1,308.9L-128.2,22.6l0.6-0.8l346.2,286.3L218.1,308.9L218.1,308.9z M-123,22.6
										l346.2,286.3l0.6-0.8L-122.3,21.9L-123,22.6L-123,22.6z M228.4,308.9L-117.8,22.6l0.6-0.8L229,308.1L228.4,308.9z
										 M-112.7,22.6l346.2,286.3l0.6-0.8L-112,21.9L-112.7,22.6L-112.7,22.6z M238.7,308.9L-107.5,22.6l0.6-0.8l346.2,286.3
										L238.7,308.9z M-102.3,22.6l346.2,286.3l0.6-0.8L-101.7,21.9L-102.3,22.6L-102.3,22.6z M249.1,308.9L-97.1,22.6l0.6-0.8
										l346.2,286.3L249.1,308.9L249.1,308.9z M-92,22.6l346.2,286.3l0.6-0.8L-91.3,21.9L-92,22.6L-92,22.6z M259.4,308.9
										L-86.8,22.6l0.6-0.8L260,308.1L259.4,308.9L259.4,308.9z M-81.6,22.6l346.2,286.3l0.6-0.8L-81,21.9L-81.6,22.6L-81.6,22.6z
										 M269.8,308.9L-76.5,22.6l0.6-0.8l346.2,286.3L269.8,308.9L269.8,308.9z M-71.3,22.6l346.2,286.3l0.6-0.8L-70.7,21.9
										L-71.3,22.6L-71.3,22.6z M280.1,308.9L-66.1,22.6l0.6-0.8l346.2,286.3L280.1,308.9z M-61,22.6l346.2,286.3l0.6-0.8
										L-60.3,21.9L-61,22.6L-61,22.6z M290.4,308.9L-55.8,22.6l0.6-0.8L291,308.1L290.4,308.9z M-50.6,22.6l346.2,286.3l0.6-0.8
										L-50,21.9L-50.6,22.6L-50.6,22.6z M300.8,308.9L-45.5,22.6l0.6-0.8l346.2,286.3L300.8,308.9L300.8,308.9z M-40.3,22.6
										l346.2,286.3l0.6-0.8L-39.7,21.9L-40.3,22.6L-40.3,22.6z M311.1,308.9L-35.1,22.6l0.6-0.8l346.2,286.3L311.1,308.9z
										 M-30,22.6l346.2,286.3l0.6-0.8L-29.3,21.9L-30,22.6L-30,22.6z M321.4,308.9L-24.8,22.6l0.6-0.8L322,308.1L321.4,308.9
										L321.4,308.9z M-19.6,22.6l346.2,286.3l0.6-0.8L-19,21.9L-19.6,22.6L-19.6,22.6z M331.8,308.9L-14.5,22.6l0.6-0.8
										l346.2,286.3L331.8,308.9z M-9.3,22.6l346.2,286.3l0.6-0.8L-8.7,21.9L-9.3,22.6L-9.3,22.6z M342.1,308.9L-4.1,22.6l0.6-0.8
										l346.2,286.3L342.1,308.9z M1,22.6l346.2,286.3l0.6-0.8L1.7,21.9L1,22.6L1,22.6z M352.4,308.9L6.2,22.6l0.6-0.8L353,308.1
										L352.4,308.9z M11.4,22.6l346.2,286.3l0.6-0.8L12,21.9L11.4,22.6L11.4,22.6z M362.8,308.9L16.5,22.6l0.6-0.8l346.2,286.3
										L362.8,308.9L362.8,308.9z M21.7,22.6l346.2,286.3l0.6-0.8L22.3,21.9L21.7,22.6L21.7,22.6z M373.1,308.9L26.9,22.6l0.6-0.8
										l346.2,286.3L373.1,308.9z M32,22.6l346.2,286.3l0.6-0.8L32.7,21.9L32,22.6L32,22.6z M383.4,308.9L37.2,22.6l0.6-0.8
										L384,308.1L383.4,308.9L383.4,308.9z M42.4,22.6l346.2,286.3l0.6-0.8L43,21.9L42.4,22.6L42.4,22.6z M393.8,308.9L47.5,22.6
										l0.6-0.8l346.2,286.3L393.8,308.9z M52.7,22.6l346.2,286.3l0.6-0.8L53.4,21.9L52.7,22.6L52.7,22.6z M404.1,308.9L57.9,22.6
										l0.6-0.8l346.2,286.3L404.1,308.9L404.1,308.9z M63,22.6l346.2,286.3l0.6-0.8L63.7,21.9L63,22.6L63,22.6z M414.4,308.9
										L68.2,22.6l0.6-0.8L415,308.1L414.4,308.9z M73.4,22.6l346.2,286.3l0.6-0.8L74,21.9L73.4,22.6L73.4,22.6z M424.8,308.9
										L78.6,22.6l0.6-0.8l346.2,286.3L424.8,308.9z M83.7,22.6L430,308.9l0.6-0.8L84.4,21.9L83.7,22.6L83.7,22.6z M435.1,308.9
										L88.9,22.6l0.6-0.8l346.2,286.3L435.1,308.9z M94.1,22.6l346.2,286.3l0.6-0.8L94.7,21.9L94.1,22.6L94.1,22.6z M445.5,308.9
										L99.2,22.6l0.6-0.8L446,308.1L445.5,308.9L445.5,308.9z M104.4,22.6l346.2,286.3l0.6-0.8L105,21.9L104.4,22.6L104.4,22.6z
										 M455.8,308.9L109.6,22.6l0.6-0.8l346.2,286.3L455.8,308.9z M114.7,22.6L461,308.9l0.6-0.8L115.4,21.9L114.7,22.6
										L114.7,22.6z M466.1,308.9L119.9,22.6l0.6-0.8l346.2,286.3L466.1,308.9z M125.1,22.6l346.2,286.3l0.6-0.8L125.7,21.9
										L125.1,22.6L125.1,22.6z M476.5,308.9L130.2,22.6l0.6-0.8L477,308.1L476.5,308.9z M135.4,22.6l346.2,286.3l0.6-0.8
										L136,21.9L135.4,22.6L135.4,22.6z M486.8,308.9L140.6,22.6l0.6-0.8l346.2,286.3L486.8,308.9z M145.7,22.6L492,308.9
										l0.6-0.8L146.4,21.9L145.7,22.6L145.7,22.6z M497.1,308.9L150.9,22.6l0.6-0.8l346.2,286.3L497.1,308.9L497.1,308.9z
										 M156.1,22.6l346.2,286.3l0.6-0.8L156.7,21.9L156.1,22.6L156.1,22.6z M507.5,308.9L161.2,22.6l0.6-0.8L508,308.1
										L507.5,308.9z M166.4,22.6l346.2,286.3l0.6-0.8L167,21.9L166.4,22.6L166.4,22.6z M517.8,308.9L171.6,22.6l0.6-0.8
										l346.2,286.3L517.8,308.9z M176.7,22.6L523,308.9l0.6-0.8L177.4,21.9L176.7,22.6L176.7,22.6z M528.1,308.9L181.9,22.6
										l0.6-0.8l346.2,286.3L528.1,308.9L528.1,308.9z M187.1,22.6l346.2,286.3l0.6-0.8L187.7,21.9L187.1,22.6L187.1,22.6z
										 M538.5,308.9L192.2,22.6l0.6-0.8L539,308.1L538.5,308.9L538.5,308.9z M197.4,22.6l346.2,286.3l0.6-0.8L198,21.9
										L197.4,22.6L197.4,22.6z M548.8,308.9L202.6,22.6l0.6-0.8l346.2,286.3L548.8,308.9z M207.7,22.6L554,308.9l0.6-0.8
										L208.4,21.9L207.7,22.6L207.7,22.6z M559.1,308.9L212.9,22.6l0.6-0.8l346.2,286.3L559.1,308.9z M218.1,22.6l346.2,286.3
										l0.6-0.8L218.7,21.9L218.1,22.6L218.1,22.6z M569.5,308.9L223.2,22.6l0.6-0.8L570,308.1L569.5,308.9z M228.4,22.6
										l346.2,286.3l0.6-0.8L229.1,21.9L228.4,22.6L228.4,22.6z M579.8,308.9L233.6,22.6l0.6-0.8l346.2,286.3L579.8,308.9
										L579.8,308.9z M238.7,22.6L585,308.9l0.6-0.8L239.4,21.9L238.7,22.6L238.7,22.6z M590.1,308.9L243.9,22.6l0.6-0.8
										l346.2,286.3L590.1,308.9z M249.1,22.6l346.2,286.3l0.6-0.8L249.7,21.9L249.1,22.6L249.1,22.6z M600.5,308.9L254.3,22.6
										l0.6-0.8l346.2,286.3L600.5,308.9L600.5,308.9z M259.4,22.6l346.2,286.3l0.6-0.8L260.1,21.9L259.4,22.6L259.4,22.6z
										 M610.8,308.9L264.6,22.6l0.6-0.8l346.2,286.3L610.8,308.9L610.8,308.9z M269.8,22.6L616,308.9l0.6-0.8L270.4,21.9
										L269.8,22.6L269.8,22.6z M621.2,308.9L274.9,22.6l0.6-0.8l346.2,286.3L621.2,308.9L621.2,308.9z M280.1,22.6l346.2,286.3
										l0.6-0.8L280.7,21.9L280.1,22.6L280.1,22.6z M631.5,308.9L285.3,22.6l0.6-0.8l346.2,286.3L631.5,308.9L631.5,308.9z
										 M290.4,22.6l346.2,286.3l0.6-0.8L291.1,21.9L290.4,22.6L290.4,22.6z M641.8,308.9L295.6,22.6l0.6-0.8l346.2,286.3
										L641.8,308.9L641.8,308.9z M300.8,22.6L647,308.9l0.6-0.8L301.4,21.9L300.8,22.6L300.8,22.6z M652.2,308.9L305.9,22.6
										l0.6-0.8l346.2,286.3L652.2,308.9z M311.1,22.6l346.2,286.3l0.6-0.8L311.7,21.9L311.1,22.6L311.1,22.6z M662.5,308.9
										L316.3,22.6l0.6-0.8l346.2,286.3L662.5,308.9L662.5,308.9z M321.4,22.6l346.2,286.3l0.6-0.8L322.1,21.9L321.4,22.6
										L321.4,22.6z M672.8,308.9L326.6,22.6l0.6-0.8l346.2,286.3L672.8,308.9z M331.8,22.6L678,308.9l0.6-0.8L332.4,21.9
										L331.8,22.6L331.8,22.6z M683.2,308.9L336.9,22.6l0.6-0.8l346.2,286.3L683.2,308.9z M342.1,22.6l346.2,286.3l0.6-0.8
										L342.7,21.9L342.1,22.6L342.1,22.6z"/>
								</g>
							</g>
						</g>
					</g>
				</g>
			</g>
		</g>
	</g>
</g>
<g>
	<polygon class="st12" points="149.8,51.8 152.3,54.1 150.2,56.5 155.1,61.7 159.7,57.2 152.2,49.4 169.3,32.4 169.3,52.5 
		167.1,54.7 164.5,52.3 165.7,51.1 165.8,40.9 157.3,49.4 164.7,57 155.2,66.7 145.1,56.7 	"/>
	<polygon class="st12" points="156.5,68 170.5,81.9 172.8,79.4 167.6,74 176.6,65.3 181.6,70.4 184.2,68 170.5,54.2 168.1,56.5 
		173.9,62.7 165.1,71.6 159,65.4 	"/>
	<polygon class="st12" points="188.1,64.2 185.6,66.7 171.3,52.4 171.3,47.6 186.8,52.9 171.3,37.2 171.3,32.2 195.6,56.6 193.2,59 
		177.3,53.4 	"/>
</g>
</svg>
